<?xml version="1.0" encoding="UTF-8" standalone="no"?>
<!-- Created with Inkscape (http://www.inkscape.org/) -->

<svg
   width="210mm"
   height="40mm"
   viewBox="0 0 210 40"
   version="1.1"
   id="svg5"
   xmlns:xlink="http://www.w3.org/1999/xlink"
   xmlns="http://www.w3.org/2000/svg"
   xmlns:svg="http://www.w3.org/2000/svg">
  <defs
     id="defs2">
    <linearGradient
       id="linearGradient50272">
      <stop
         style="stop-color:#000023;stop-opacity:1"
         offset="0"
         id="stop51541" />
      <stop
         style="stop-color:#f8a8a9;stop-opacity:1"
         offset="0.00878331"
         id="stop51866" />
      <stop
         style="stop-color:#db6ca0;stop-opacity:1"
         offset="0.17230223"
         id="stop168092" />
      <stop
         style="stop-color:#b04d9e;stop-opacity:1"
         offset="0.25713527"
         id="stop51932" />
      <stop
         style="stop-color:#614e87;stop-opacity:1"
         offset="0.42496505"
         id="stop122102" />
      <stop
         style="stop-color:#222747;stop-opacity:1"
         offset="0.54852146"
         id="stop150855" />
      <stop
         style="stop-color:#00001e;stop-opacity:1"
         offset="1"
         id="stop52126" />
    </linearGradient>
    <rect
       x="91.456718"
       y="285.54294"
       width="964.8288"
       height="48.335423"
       id="rect5378" />
    <linearGradient
       xlink:href="#linearGradient50272"
       id="linearGradient51539"
       gradientUnits="userSpaceOnUse"
       x1="6.4786658"
       y1="19.315859"
       x2="141.33057"
       y2="19.315859"
       gradientTransform="matrix(1.0000036,0,0,1.0000036,-7.5340729e-6,1.0582592)" />
  </defs>
  <g
     id="layer1">
    <g
       aria-label="MASSLESS.LTD"
       id="text3443"
       style="font-size:33.8668px;line-height:1.25;font-family:Ubuntu;-inkscape-font-specification:Ubuntu;fill:url(#linearGradient51539);stroke-width:0.264583">
      <path
         d="m 9.5719318,11.421466 v 18.520906 c 0,0.903997 -0.3968765,1.355995 -1.1906296,1.355995 -0.7386313,0 -1.107947,-0.451998 -1.107947,-1.355995 V 9.4866932 c 0,-0.2425357 0.016536,-0.440974 0.049609,-0.5953149 v 0 c 0.099219,-0.50712 0.5346809,-0.76068 1.3063853,-0.76068 h 1.8851645 c 0.617363,0 1.047312,0.2700965 1.289848,0.8102896 l 2.166285,4.7790551 c 0.220486,0.474047 0.424437,0.71107 0.61185,0.71107 0.176391,0 0.391365,-0.225999 0.644925,-0.677997 l 2.745062,-4.8121281 c 0.308682,-0.5401931 0.837851,-0.8102896 1.587507,-0.8102896 h 4.067985 c 0.231511,0 0.429949,0.016537 0.595314,0.04961 v 0 c 0.507121,0.1102435 0.76068,0.5457052 0.760681,1.3063853 V 29.942372 c 0,0.606339 -0.08268,0.986679 -0.248049,1.14102 -0.165365,0.143317 -0.534681,0.214975 -1.107946,0.214975 h -2.232431 c -0.595315,0 -0.970143,-0.07166 -1.124483,-0.214975 -0.154341,-0.143317 -0.231512,-0.523657 -0.231512,-1.14102 V 11.421466 c 0,-0.451998 -0.07166,-0.677997 -0.214974,-0.677997 -0.154341,0 -0.35278,0.225999 -0.595315,0.677997 l -3.42306,6.168123 c -0.385852,0.694534 -0.826826,1.041801 -1.322922,1.041801 -0.440974,0 -0.8599,-0.347267 -1.256776,-1.041801 l -2.811209,-6.168123 c -0.165365,-0.363803 -0.325218,-0.545705 -0.4795592,-0.545705 -0.2425357,0 -0.3638033,0.181902 -0.363803,0.545705 z"
         style="font-family:Computer;-inkscape-font-specification:Computer"
         id="path176509" />
      <path
         d="m 31.54897,31.298367 h -2.248967 q -0.909509,0 -1.124483,-0.231512 -0.214975,-0.231511 -0.214975,-1.124483 v -8.08636 q 0,-1.57097 1.339458,-1.57097 1.289849,0 1.289849,-1.455214 V 9.4866932 q 0,-1.3559949 1.355995,-1.3559949 h 9.855767 q 1.355995,0 1.355995,1.3559949 V 29.942372 q 0,1.355995 -1.157556,1.355995 -1.14102,0 -1.14102,-1.355995 v -8.053287 q 0,-0.876436 -0.248048,-1.107947 -0.248048,-0.248048 -1.107947,-0.248048 h -5.258615 q -0.859899,0 -1.107947,0.248048 -0.231511,0.231511 -0.231511,1.107947 v 8.053287 q 0,0.892972 -0.231511,1.124483 -0.214975,0.231512 -1.124484,0.231512 z M 32.904965,11.78527 v 5.093249 q 0,0.859899 0.231511,1.107947 0.248048,0.231511 1.107947,0.231511 h 5.258615 q 0.859899,0 1.107947,-0.231511 0.248048,-0.248048 0.248048,-1.107947 V 11.78527 q 0,-0.859899 -0.248048,-1.107947 -0.248048,-0.248048 -1.107947,-0.248048 h -5.258615 q -0.859899,0 -1.107947,0.248048 -0.231511,0.248048 -0.231511,1.107947 z"
         style="font-family:Computer;-inkscape-font-specification:Computer"
         id="path176511" />
      <path
         d="M 57.957798,31.298367 H 48.10203 q -0.777216,0 -1.074874,-0.297658 -0.281121,-0.297657 -0.281121,-1.09141 v -5.175932 q 0,-0.926045 0.231512,-1.14102 0.248048,-0.214975 1.124483,-0.214975 h 2.248967 q 0.876436,0 1.107947,0.214975 0.248048,0.214975 0.248048,1.14102 v 2.910428 q 0,0.859899 0.231512,1.107947 0.248047,0.248048 1.107947,0.248048 h 2.778135 q 0.876436,0 1.107947,-0.248048 0.248048,-0.248048 0.248048,-1.107947 v -5.853929 q 0,-0.876436 -0.248048,-1.107947 -0.231511,-0.248048 -1.107947,-0.248048 H 48.10203 q -0.777216,0 -1.074874,-0.281121 -0.281121,-0.297657 -0.281121,-1.074874 V 9.4866932 q 0,-0.3638035 0.04961,-0.5953149 v 0 q 0.165365,-0.76068 1.306385,-0.76068 H 58.1397 q 0.347267,0 0.578778,0.04961 v 0 q 0.777216,0.1653652 0.777216,1.3063853 v 4.2994954 q 0,1.355995 -1.124483,1.355995 -1.19063,0 -1.19063,-1.355995 V 11.78527 q 0,-0.859899 -0.248048,-1.107947 -0.231511,-0.248048 -1.107947,-0.248048 h -5.407443 q -0.876435,0 -1.124483,0.248048 -0.231511,0.248048 -0.231511,1.107947 v 4.977493 q 0,0.876436 0.231511,1.124484 0.248048,0.231511 1.124483,0.231511 H 58.1397 q 0.347267,0 0.578778,0.04961 v 0 q 0.777216,0.165365 0.777216,1.306385 v 10.434546 q 0,0.793753 -0.314193,1.09141 -0.314194,0.297658 -1.223703,0.297658 z"
         style="font-family:Computer;-inkscape-font-specification:Computer"
         id="path176513" />
      <path
         d="m 74.246273,31.298367 h -9.855768 q -0.777216,0 -1.074874,-0.297658 -0.28112,-0.297657 -0.28112,-1.09141 v -5.175932 q 0,-0.926045 0.231511,-1.14102 0.248048,-0.214975 1.124483,-0.214975 h 2.248967 q 0.876436,0 1.107947,0.214975 0.248048,0.214975 0.248048,1.14102 v 2.910428 q 0,0.859899 0.231512,1.107947 0.248047,0.248048 1.107947,0.248048 h 2.778135 q 0.876436,0 1.107947,-0.248048 0.248048,-0.248048 0.248048,-1.107947 v -5.853929 q 0,-0.876436 -0.248048,-1.107947 -0.231511,-0.248048 -1.107947,-0.248048 h -7.722556 q -0.777216,0 -1.074874,-0.281121 -0.28112,-0.297657 -0.28112,-1.074874 V 9.4866932 q 0,-0.3638035 0.04961,-0.5953149 v 0 q 0.165365,-0.76068 1.306385,-0.76068 h 10.03767 q 0.347267,0 0.578778,0.04961 v 0 q 0.777216,0.1653652 0.777216,1.3063853 v 4.2994954 q 0,1.355995 -1.124483,1.355995 -1.19063,0 -1.19063,-1.355995 V 11.78527 q 0,-0.859899 -0.248048,-1.107947 -0.231511,-0.248048 -1.107947,-0.248048 H 66.70562 q -0.876436,0 -1.124484,0.248048 -0.231511,0.248048 -0.231511,1.107947 v 4.977493 q 0,0.876436 0.231511,1.124484 0.248048,0.231511 1.124484,0.231511 h 7.722556 q 0.347267,0 0.578778,0.04961 v 0 q 0.777216,0.165365 0.777216,1.306385 v 10.434546 q 0,0.793753 -0.314193,1.09141 -0.314194,0.297658 -1.223704,0.297658 z"
         style="font-family:Computer;-inkscape-font-specification:Computer"
         id="path176515" />
      <path
         d="M 91.014307,31.298367 H 81.05932 q -0.793753,0 -1.074874,-0.281121 -0.28112,-0.281121 -0.28112,-1.074874 v -8.367481 q 0,-0.876435 0.562241,-1.124483 0.04961,-0.01654 1.24024,-0.231512 0.843362,-0.148828 0.843362,-1.289848 V 9.4866932 q 0,-1.3559949 1.14102,-1.3559949 1.157557,0 1.157557,1.3559949 V 27.643795 q 0,0.859899 0.248048,1.107947 0.248048,0.248048 1.107947,0.248048 h 5.010566 q 1.355995,0 1.355995,1.14102 0,1.157557 -1.355995,1.157557 z"
         style="font-family:Computer;-inkscape-font-specification:Computer"
         id="path176517" />
      <path
         d="m 106.32713,31.298367 h -9.458894 q -1.355995,0 -1.355995,-1.521361 V 9.4866932 q 0,-0.3638035 0.04961,-0.5953149 v 0 q 0.165365,-0.76068 1.306385,-0.76068 h 9.458894 q 1.32292,0 1.32292,1.1575566 0,1.1410201 -1.32292,1.1410201 h -7.143781 q -0.876435,0 -1.124483,0.248048 -0.231511,0.248048 -0.231511,1.107947 v 5.159395 q 0,0.859899 0.231511,1.107947 0.248048,0.248048 1.124483,0.248048 h 7.143781 q 1.32292,0 1.32292,1.074874 0,1.223702 -1.32292,1.223702 h -4.51447 q -0.8599,0 -1.10795,0.248048 -0.24805,0.248048 -0.24805,1.107947 v 5.688564 q 0,0.859899 0.24805,1.107947 0.24805,0.248048 1.10795,0.248048 h 4.51447 q 1.32292,0 1.32292,1.107947 0,1.19063 -1.32292,1.19063 z"
         style="font-family:Computer;-inkscape-font-specification:Computer"
         id="path176519" />
      <path
         d="m 121.85492,31.298367 h -9.85576 q -0.77722,0 -1.07488,-0.297658 -0.28112,-0.297657 -0.28112,-1.09141 v -5.175932 q 0,-0.926045 0.23151,-1.14102 0.24805,-0.214975 1.12449,-0.214975 h 2.24896 q 0.87644,0 1.10795,0.214975 0.24805,0.214975 0.24805,1.14102 v 2.910428 q 0,0.859899 0.23151,1.107947 0.24805,0.248048 1.10795,0.248048 h 2.77813 q 0.87644,0 1.10795,-0.248048 0.24805,-0.248048 0.24805,-1.107947 v -5.853929 q 0,-0.876436 -0.24805,-1.107947 -0.23151,-0.248048 -1.10795,-0.248048 h -7.72255 q -0.77722,0 -1.07488,-0.281121 -0.28112,-0.297657 -0.28112,-1.074874 V 9.4866932 q 0,-0.3638035 0.0496,-0.5953149 v 0 q 0.16537,-0.76068 1.30639,-0.76068 h 10.03766 q 0.34727,0 0.57878,0.04961 v 0 q 0.77722,0.1653652 0.77722,1.3063853 v 4.2994954 q 0,1.355995 -1.12448,1.355995 -1.19063,0 -1.19063,-1.355995 V 11.78527 q 0,-0.859899 -0.24805,-1.107947 -0.23151,-0.248048 -1.10795,-0.248048 h -5.40744 q -0.87644,0 -1.12448,0.248048 -0.23152,0.248048 -0.23152,1.107947 v 4.977493 q 0,0.876436 0.23152,1.124484 0.24804,0.231511 1.12448,0.231511 h 7.72255 q 0.34727,0 0.57878,0.04961 v 0 q 0.77722,0.165365 0.77722,1.306385 v 10.434546 q 0,0.793753 -0.31419,1.09141 -0.3142,0.297658 -1.22371,0.297658 z"
         style="font-family:Computer;-inkscape-font-specification:Computer"
         id="path176521" />
      <path
         d="m 138.1434,31.298367 h -9.85577 q -0.77722,0 -1.07487,-0.297658 -0.28112,-0.297657 -0.28112,-1.09141 v -5.175932 q 0,-0.926045 0.23151,-1.14102 0.24804,-0.214975 1.12448,-0.214975 h 2.24897 q 0.87643,0 1.10794,0.214975 0.24805,0.214975 0.24805,1.14102 v 2.910428 q 0,0.859899 0.23151,1.107947 0.24805,0.248048 1.10795,0.248048 h 2.77814 q 0.87643,0 1.10794,-0.248048 0.24805,-0.248048 0.24805,-1.107947 v -5.853929 q 0,-0.876436 -0.24805,-1.107947 -0.23151,-0.248048 -1.10794,-0.248048 h -7.72256 q -0.77722,0 -1.07487,-0.281121 -0.28112,-0.297657 -0.28112,-1.074874 V 9.4866932 q 0,-0.3638035 0.0496,-0.5953149 v 0 q 0.16536,-0.76068 1.30638,-0.76068 h 10.03767 q 0.34727,0 0.57878,0.04961 v 0 q 0.77721,0.1653652 0.77721,1.3063853 v 4.2994954 q 0,1.355995 -1.12448,1.355995 -1.19063,0 -1.19063,-1.355995 V 11.78527 q 0,-0.859899 -0.24805,-1.107947 -0.23151,-0.248048 -1.10794,-0.248048 h -5.40745 q -0.87643,0 -1.12448,0.248048 -0.23151,0.248048 -0.23151,1.107947 v 4.977493 q 0,0.876436 0.23151,1.124484 0.24805,0.231511 1.12448,0.231511 h 7.72256 q 0.34727,0 0.57878,0.04961 v 0 q 0.77721,0.165365 0.77721,1.306385 v 10.434546 q 0,0.793753 -0.31419,1.09141 -0.31419,0.297658 -1.2237,0.297658 z"
         style="font-family:Computer;-inkscape-font-specification:Computer"
         id="path176523" />
      <path
         d="m 147.42038,31.298367 h -2.49702 q -0.85989,0 -1.07487,-0.214975 -0.21497,-0.214975 -0.21497,-1.074874 v -3.952229 q 0,-0.876436 0.21497,-1.074874 0.21498,-0.214975 1.07487,-0.214975 h 2.49702 q 0.87644,0 1.07487,0.214975 0.21498,0.198438 0.21498,1.074874 v 3.952229 q 0,0.859899 -0.21498,1.074874 -0.19843,0.214975 -1.07487,0.214975 z"
         style="font-family:Computer;-inkscape-font-specification:Computer"
         id="path176525" />
      <path
         d="m 164.32071,31.298367 h -9.95499 q -0.79375,0 -1.07487,-0.281121 -0.28112,-0.281121 -0.28112,-1.074874 v -8.367481 q 0,-0.876435 0.56224,-1.124483 0.0496,-0.01654 1.24024,-0.231512 0.84336,-0.148828 0.84336,-1.289848 V 9.4866932 q 0,-1.3559949 1.14102,-1.3559949 1.15756,0 1.15756,1.3559949 V 27.643795 q 0,0.859899 0.24805,1.107947 0.24805,0.248048 1.10794,0.248048 h 5.01057 q 1.356,0 1.356,1.14102 0,1.157557 -1.356,1.157557 z"
         style="font-family:Computer;-inkscape-font-specification:Computer"
         id="path176527" />
      <path
         d="m 177.05384,31.298367 h -2.23243 q -0.89297,0 -1.12448,-0.214975 -0.23151,-0.214975 -0.23151,-1.14102 V 11.78527 q 0,-0.859899 -0.24805,-1.107947 -0.24805,-0.248048 -1.10795,-0.248048 h -2.46394 q -1.356,0 -1.356,-1.1410201 0,-1.1575566 1.356,-1.1575566 h 12.58429 q 1.356,0 1.356,1.1575566 0,1.1410201 -1.356,1.1410201 h -2.46394 q -0.8599,0 -1.10795,0.248048 -0.24804,0.248048 -0.24804,1.107947 v 18.157102 q 0,0.926045 -0.23151,1.14102 -0.23152,0.214975 -1.12449,0.214975 z"
         style="font-family:Computer;-inkscape-font-specification:Computer"
         id="path176529" />
      <path
         d="m 196.89767,31.298367 h -8.76436 q -0.79375,0 -1.07487,-0.264585 -0.28112,-0.281121 -0.28112,-1.09141 V 9.4866932 q 0,-0.3638035 0.0496,-0.5953149 v 0 q 0.16536,-0.76068 1.30638,-0.76068 h 8.76436 q 2.18282,0 3.40652,1.2402392 1.24024,1.2237025 1.24024,3.3734505 v 13.940289 q 0,2.149748 -1.24024,3.389987 -1.2237,1.223703 -3.40652,1.223703 z M 191.72174,11.78527 v 15.858525 q 0,0.859899 0.24804,1.107947 0.24805,0.248048 1.10795,0.248048 h 3.78687 q 1.30638,0 1.83555,-0.529169 0.5457,-0.545705 0.5457,-1.85209 V 12.810534 q 0,-1.306385 -0.5457,-1.835554 -0.52917,-0.545705 -1.83555,-0.545705 h -3.78687 q -0.8599,0 -1.10795,0.248048 -0.24804,0.248048 -0.24804,1.107947 z"
         style="font-family:Computer;-inkscape-font-specification:Computer"
         id="path176531" />
    </g>
    <text
       xml:space="preserve"
       transform="scale(0.26458334)"
       id="text5376"
       style="font-size:40px;line-height:1.25;font-family:Computer;-inkscape-font-specification:Computer;white-space:pre;shape-inside:url(#rect5378)" />
  </g>
</svg>
