<?xml version="1.0" encoding="UTF-8" standalone="no"?>
<!DOCTYPE svg PUBLIC "-//W3C//DTD SVG 1.1//EN" "http://www.w3.org/Graphics/SVG/1.1/DTD/svg11.dtd">
<svg width="100%" height="100%" viewBox="0 0 974 188" version="1.1" xmlns="http://www.w3.org/2000/svg" xmlns:xlink="http://www.w3.org/1999/xlink" xml:space="preserve" xmlns:serif="http://www.serif.com/" style="fill-rule:evenodd;clip-rule:evenodd;stroke-linejoin:round;stroke-miterlimit:2;">
    <path id="cca" d="M622.52,187.76L620.82,187.76L620.82,0L622.52,0L622.52,187.76ZM700.89,145.12C700.89,152.75 697.62,156.92 690.28,156.92C683.65,156.92 681.23,153.17 680.71,149.72L683.93,149.72C684.74,152.72 687.15,154.17 690.42,154.17C696.29,154.17 697.81,150.43 697.81,144.65L697.81,142.38C696.53,145.27 694.26,146.88 690.09,146.88C684.36,146.88 680.24,142.24 680.24,135.04C680.24,127.13 684.78,122.54 690.47,122.54C695.2,122.54 697.19,124.76 697.81,126.54C697.81,125.31 697.95,123.65 698,123.13L701,123.13C701,124.22 700.91,127.72 700.91,129.99L700.89,145.12ZM776.01,123.15C780.42,135.75 782.5,141.71 783.26,144.22L783.31,144.22C784.16,141.38 785.96,135.89 790.31,123.15L793.53,123.15L784.77,148.15C782.26,155.21 780.55,156.87 775.96,156.87C775.168,156.868 774.376,156.818 773.59,156.72L773.59,153.79C774.283,153.883 774.981,153.93 775.68,153.93C778.9,153.93 780.03,152.41 781.68,147.93L772.68,123.12L776.01,123.15ZM661.98,129.39L658.85,129.39C659.14,126.5 660.94,122.57 667.66,122.57C673.25,122.57 676.38,124.89 676.38,130.19L676.4,142.14C676.386,143.756 676.496,145.371 676.73,146.97L673.73,146.97C673.461,145.854 673.333,144.708 673.35,143.56C672.5,145.22 670.51,147.56 665.72,147.56C660.13,147.56 657.72,143.96 657.72,140.36C657.72,135.05 661.84,132.69 668.94,132.69L673.25,132.69L673.25,130.38C673.25,128.11 672.54,125.22 667.57,125.22C663.12,125.22 662.45,127.49 661.98,129.39ZM707.85,135.56C707.85,141.1 710.65,144.74 715,144.74C719.17,144.74 720.55,142.47 721.35,140.62L724.57,140.62C723.57,143.75 721.07,147.54 714.91,147.54C707.52,147.54 704.63,141.38 704.63,135.27C704.63,128.36 708.09,122.58 715.15,122.58C722.68,122.58 725.09,128.83 725.09,133.58L725.09,135.58L707.85,135.56ZM771.32,130.34L768.15,130.34C767.49,127.74 765.83,125.34 762.04,125.34C757.4,125.34 754.75,129.34 754.75,135C754.75,140.66 757.26,144.71 761.85,144.71C765.12,144.71 767.01,143.06 768.15,139.79L771.32,139.82C770.24,143.99 767.49,147.54 761.8,147.54C755.6,147.54 751.43,142.99 751.43,135.18C751.43,128.55 755.08,122.58 762.09,122.58C768.53,122.58 770.95,127.12 771.32,130.34ZM731.96,146.95L728.79,146.95L728.79,129.16C728.79,127.08 728.79,124.99 728.74,123.16L731.82,123.16C731.91,123.87 732.01,126.71 731.96,127.42C732.96,125.15 734.9,122.59 739.68,122.59C744.04,122.59 747.68,125.1 747.68,131.59L747.68,146.98L744.5,146.98L744.5,131.98C744.5,128.05 742.89,125.45 738.96,125.45C733.85,125.45 731.96,129.57 731.96,134.59L731.96,146.95ZM673.32,135.08L669.01,135.08C664.01,135.08 661.01,136.41 661.01,140.15C661.01,142.94 663.01,144.89 666.13,144.89C672.48,144.89 673.33,140.67 673.33,135.89L673.32,135.08ZM690.66,144.12C696.24,144.12 697.9,140.43 697.9,134.65C697.9,128.87 696.2,125.41 690.8,125.41C685.8,125.41 683.55,129.67 683.55,134.98C683.55,140.29 686.35,144.08 690.7,144.08L690.66,144.12ZM721.85,133.09C721.85,128.74 719.53,125.28 715.13,125.28C710.53,125.28 708.5,128.45 708.02,133.09L721.85,133.09ZM798.9,105.97L795.82,105.97C795.705,104.68 795.658,103.385 795.68,102.09C794.59,104.83 792.23,106.54 788.2,106.54C784.51,106.54 780.35,104.88 780.35,97.87L780.35,82.12L783.52,82.12L783.52,97.12C783.52,100.43 784.52,103.6 788.91,103.6C793.79,103.6 795.68,100.85 795.68,94.42L795.68,82.12L798.85,82.12L798.85,98.97C798.85,101.29 798.9,104.789 798.9,105.97ZM863.08,88.39L859.95,88.39C860.24,85.5 862.03,81.57 868.76,81.57C874.34,81.57 877.47,83.89 877.47,89.19L877.49,101.1C877.471,102.716 877.581,104.331 877.82,105.93L874.82,105.93C874.551,104.814 874.423,103.668 874.44,102.52C873.59,104.18 871.6,106.52 866.82,106.52C861.23,106.52 858.82,102.92 858.82,99.32C858.82,94.02 862.94,91.65 870.03,91.65L874.34,91.65L874.34,89.38C874.34,87.11 873.63,84.22 868.66,84.22C864.21,84.22 863.55,86.5 863.08,88.39ZM972.88,88.32L969.76,88.32C969.38,86.52 967.96,84.2 964.13,84.2C960.3,84.2 959.25,86.05 959.25,87.8C959.25,89.8 960.25,90.8 964.84,91.87C971.84,93.53 973.36,95.87 973.36,99.4C973.36,103.66 969.95,106.5 964.51,106.5C958.73,106.5 955.7,103.5 955.09,99.26L958.3,99.26C959.06,102.1 961.14,103.85 964.64,103.85C968.52,103.85 970.09,102.1 970.09,99.63C970.09,97.16 969,95.94 964.03,94.76C957.54,93.2 956.03,91.21 956.03,88.04C956.03,84.87 958.54,81.55 964.22,81.55C969.9,81.55 972.51,84.96 972.88,88.32ZM677.48,89.32L674.31,89.32C673.65,86.71 671.99,84.32 668.21,84.32C663.57,84.32 660.91,88.32 660.91,93.97C660.91,99.62 663.42,103.67 668.02,103.67C671.28,103.67 673.18,102.02 674.31,98.75L677.48,98.78C676.39,102.95 673.65,106.5 667.97,106.5C661.77,106.5 657.6,101.95 657.6,94.14C657.6,87.52 661.25,81.55 668.25,81.55C674.69,81.55 677.1,86.1 677.48,89.32ZM702.7,93.95C702.7,100.72 698.91,106.5 691.7,106.5C685.07,106.5 681.05,101.2 681.05,94.05C681.05,87.14 684.93,81.55 691.94,81.55C698.4,81.55 702.7,86.48 702.7,93.95ZM928.01,93.95C928.01,100.72 924.22,106.5 917.01,106.5C910.38,106.5 906.36,101.2 906.36,94.05C906.36,87.14 910.24,81.55 917.25,81.55C923.75,81.55 928.01,86.48 928.01,93.95ZM855.34,89.32L852.17,89.32C851.51,86.71 849.85,84.32 846.07,84.32C841.43,84.32 838.78,88.32 838.78,93.97C838.78,99.62 841.29,103.67 845.88,103.67C849.14,103.67 851.04,102.02 852.17,98.75L855.34,98.78C854.25,102.95 851.51,106.5 845.83,106.5C839.63,106.5 835.46,101.95 835.46,94.14C835.46,87.52 839.11,81.55 846.11,81.55C852.55,81.55 854.96,86.1 855.34,89.32ZM888.41,82.12L893.9,82.12L893.9,84.87L888.41,84.87L888.41,99.63C888.41,102.14 888.98,103.51 891.2,103.51C891.963,103.525 892.725,103.448 893.47,103.28L893.47,105.83C892.428,106.152 891.34,106.297 890.25,106.26C886.89,106.26 885.25,104.56 885.25,100.67L885.25,84.87L880.94,84.87L880.93,82.12L885.24,82.12L885.24,74.88L888.41,74.88L888.41,82.12ZM746.81,105.93L743.7,105.93L743.7,82.12L746.78,82.12C746.78,82.88 746.92,84.77 746.87,86.12C748.054,83.301 750.863,81.488 753.92,81.57C757.28,81.57 759.79,83.23 760.69,86.07C762.13,83.167 765.175,81.392 768.41,81.57C772.15,81.57 775.88,83.75 775.88,90.28L775.88,105.95L772.7,105.95L772.7,90.64C772.7,87.64 771.61,84.44 767.49,84.44C763.37,84.44 761.29,87.8 761.29,92.25L761.29,105.93L758.22,105.93L758.22,90.73C758.22,87.42 757.22,84.44 753.15,84.44C748.89,84.44 746.81,88.08 746.81,92.77L746.81,105.93ZM709.81,105.93L706.7,105.93L706.7,82.12L709.7,82.12C709.75,82.88 709.85,84.77 709.8,86.12C710.984,83.301 713.793,81.488 716.85,81.57C720.21,81.57 722.72,83.23 723.62,86.07C725.058,83.171 728.098,81.396 731.33,81.57C735.07,81.57 738.81,83.75 738.81,90.28L738.81,105.95L735.7,105.95L735.7,90.64C735.7,87.64 734.61,84.44 730.49,84.44C726.37,84.44 724.29,87.8 724.29,92.25L724.29,105.93L721.22,105.93L721.22,90.73C721.22,87.42 720.22,84.44 716.15,84.44C711.89,84.44 709.81,88.08 709.81,92.77L709.81,105.93ZM806.84,105.9L803.67,105.9L803.64,88.13C803.64,86.05 803.64,83.97 803.59,82.13L806.7,82.13C806.79,82.84 806.88,85.68 806.84,86.39C807.84,84.12 809.77,81.56 814.55,81.56C818.91,81.56 822.55,84.07 822.55,90.56L822.55,105.94L819.38,105.94L819.38,90.94C819.38,87.01 817.77,84.41 813.84,84.41C808.73,84.41 806.84,88.53 806.84,93.55L806.84,105.9ZM935.46,105.9L932.29,105.9L932.29,88.13C932.29,86.05 932.29,83.97 932.24,82.13L935.32,82.13C935.41,82.84 935.51,85.68 935.46,86.39C936.46,84.12 938.39,81.56 943.18,81.56C947.53,81.56 951.18,84.07 951.18,90.56L951.18,105.94L948,105.94L948,90.94C948,87.01 946.39,84.41 942.46,84.41C937.35,84.41 935.46,88.53 935.46,93.55L935.46,105.9ZM901.51,105.93L898.34,105.93L898.34,82.12L901.51,82.12L901.51,105.93ZM831.07,105.93L827.9,105.93L827.9,82.12L831.07,82.12L831.07,105.93ZM874.41,94.05L870.1,94.05C865.1,94.05 862.1,95.37 862.1,99.11C862.1,101.91 864.04,103.85 867.21,103.85C873.56,103.85 874.41,99.63 874.41,94.85L874.41,94.05ZM684.34,94C684.34,99.49 687.22,103.7 691.91,103.7C696.6,103.7 699.39,99.78 699.39,94.05C699.39,88.51 696.74,84.35 691.82,84.35C686.9,84.35 684.3,88.38 684.3,94L684.34,94ZM909.64,94C909.64,99.49 912.53,103.7 917.22,103.7C921.91,103.7 924.7,99.78 924.7,94.05C924.7,88.51 922.04,84.35 917.12,84.35C912.2,84.35 909.64,88.38 909.64,94ZM831.07,75.97L827.9,75.97L827.9,71.09L831.07,71.09L831.07,75.97ZM901.51,75.97L898.34,75.97L898.34,71.09L901.51,71.09L901.51,75.97ZM722.83,46.89L719.7,46.89C719.98,44.01 721.78,40.08 728.5,40.08C734.09,40.08 737.21,42.4 737.21,47.7L737.24,59.63C737.226,61.243 737.336,62.854 737.57,64.45L734.57,64.45C734.3,63.337 734.172,62.195 734.19,61.05C733.34,62.7 731.35,65.05 726.57,65.05C720.99,65.05 718.57,61.45 718.57,57.86C718.57,52.56 722.69,50.19 729.79,50.19L734.1,50.19L734.1,47.89C734.1,45.62 733.39,42.73 728.42,42.73C723.97,42.73 723.31,45 722.83,46.89ZM677.48,47.84L674.31,47.84C673.65,45.24 671.99,42.84 668.21,42.84C663.57,42.84 660.91,46.84 660.91,52.5C660.91,58.16 663.42,62.2 668.02,62.2C671.28,62.2 673.18,60.54 674.31,57.28L677.48,57.31C676.39,61.47 673.65,65.02 667.97,65.02C661.77,65.02 657.6,60.48 657.6,52.67C657.6,46.04 661.25,40.08 668.25,40.08C674.69,40.08 677.1,44.62 677.48,47.84ZM788.35,53.05C788.35,58.58 791.14,62.23 795.49,62.23C799.66,62.23 801.03,59.96 801.83,58.11L805.05,58.11C804.05,61.24 801.55,65.02 795.4,65.02C788.01,65.02 785.13,58.87 785.13,52.76C785.13,45.85 788.58,40.08 795.63,40.08C803.16,40.08 805.57,46.33 805.57,51.08L805.57,53.08L788.35,53.05ZM697.7,53.05C697.7,58.58 700.49,62.23 704.85,62.23C709.01,62.23 710.38,59.96 711.19,58.11L714.4,58.11C713.4,61.24 710.9,65.02 704.75,65.02C697.37,65.02 694.48,58.87 694.48,52.76C694.48,45.85 697.93,40.08 704.99,40.08C712.51,40.08 714.93,46.33 714.93,51.08L714.93,53.08L697.7,53.05ZM747.39,40.63L752.88,40.63L752.88,43.38L747.39,43.38L747.39,58.15C747.39,60.66 747.96,62.03 750.18,62.03C750.947,62.042 751.712,61.962 752.46,61.79L752.46,64.38C751.417,64.694 750.329,64.836 749.24,64.8C745.88,64.8 744.24,63.1 744.24,59.22L744.24,43.38L739.93,43.38L739.91,40.65L744.22,40.65L744.22,33.38L747.39,33.38L747.39,40.63ZM684.73,64.47L681.56,64.47L681.56,47.13C681.56,43.44 681.51,41.64 681.51,40.65L684.58,40.65C684.716,42.35 684.767,44.055 684.73,45.76C685.988,42.361 689.245,40.088 692.87,40.08L692.87,43.38C687.95,43.62 684.73,46.65 684.73,52.47L684.73,64.47ZM775.36,64.45L771.76,64.45L763.33,40.65L766.78,40.65C770.33,51.01 772.84,58.38 773.7,61.38C774.22,59.2 776.82,52.1 780.99,40.65L784.25,40.65L775.36,64.45ZM759.92,64.45L756.75,64.45L756.75,40.65L759.92,40.65L759.92,64.45ZM734.16,52.57L729.86,52.57C724.86,52.57 721.86,53.9 721.86,57.64C721.86,60.43 723.8,62.37 726.97,62.37C733.31,62.37 734.16,58.16 734.16,53.37L734.16,52.57ZM711.7,50.59C711.7,46.23 709.38,42.78 704.98,42.78C700.39,42.78 698.35,45.95 697.88,50.59L711.7,50.59ZM802.35,50.59C802.3,46.23 800.03,42.78 795.63,42.78C791.03,42.78 789,45.95 788.53,50.59L802.35,50.59ZM759.92,34.49L756.75,34.49L756.75,29.62L759.92,29.62L759.92,34.49Z" style="fill:white;fill-rule:nonzero;"/>
    <g>
        <rect x="356.03" y="0" width="1.7" height="187.76" style="fill:white;"/>
        <path d="M583.96,170.28L581.45,170.28C581.19,168.9 580.34,167.71 577.98,167.71C576.07,167.71 574.98,168.54 574.98,170.04C574.98,171.54 575.88,172.11 578.72,172.8C583.46,173.95 584.34,175.8 584.34,177.92C584.34,180.66 582.34,182.76 578.19,182.76C574.04,182.76 572.19,180.52 571.81,177.9L574.26,177.9C574.71,179.81 576.02,180.83 578.33,180.83C580.64,180.83 581.76,179.71 581.76,178.21C581.76,176.71 580.95,175.73 577.76,174.97C573.76,173.97 572.45,172.61 572.45,170.3C572.45,167.75 574.31,165.75 578.05,165.75C582.05,165.75 583.72,168.06 583.96,170.28ZM530.94,182.55L528.51,182.55L528.51,165.99L535.14,165.99C538.57,165.99 540.4,167.87 540.4,170.45C540.528,172.224 539.401,173.863 537.7,174.38C538.94,174.72 540.13,175.72 540.13,178.6L540.13,179.31C540.063,180.406 540.144,181.505 540.37,182.58L537.99,182.58C537.709,181.402 537.612,180.188 537.7,178.98L537.7,178.67C537.7,176.41 537.08,175.41 534.15,175.41L530.94,175.38L530.94,182.55ZM450.39,168.09L441.8,168.09L441.8,172.85L449.97,172.85L449.97,174.92L441.8,174.92L441.8,180.47L450.8,180.47L450.49,182.55L439.39,182.55L439.39,165.99L450.39,165.99L450.39,168.09ZM497.14,182.55L494.52,182.55L492.78,177.81L486.28,177.81L484.61,182.55L482.15,182.55L487.99,165.99L491.04,165.99L497.14,182.55ZM401.92,182.55L399.46,182.55L399.46,176.55C399.464,176.392 399.423,176.235 399.34,176.1L393.53,166.02L396.34,166.02C397.79,168.69 400.06,172.76 400.82,174.29C401.54,172.81 403.89,168.67 405.39,166.02L408.01,166.02L402.01,176.12C401.946,176.254 401.915,176.402 401.92,176.55L401.92,182.55ZM492.18,175.71C490.68,171.54 489.82,169.23 489.47,167.95C489.07,169.37 488.12,172.14 486.92,175.71L492.18,175.71ZM534.64,168.07L530.94,168.07L530.94,173.38L534.42,173.38C536.85,173.38 537.88,172.48 537.88,170.69C537.88,168.9 536.78,168.07 534.64,168.07Z" style="fill:white;fill-rule:nonzero;"/>
        <path d="M534.4,40.53C505.137,40.535 481.06,64.617 481.06,93.88C481.06,123.147 505.143,147.23 534.41,147.23C563.677,147.23 587.76,123.147 587.76,93.88C587.76,64.613 563.677,40.53 534.41,40.53L534.4,40.53ZM461.02,101.7L471.22,101.7L471.22,122.99L461.02,122.99L461.02,147.2L440.17,147.2L440.17,122.96L390.53,122.96L390.53,102.38L434.28,40.93L461.02,40.93L461.02,101.7ZM534.4,123.32C518.25,123.32 504.96,110.03 504.96,93.88C504.96,77.73 518.25,64.44 534.4,64.44C550.55,64.44 563.84,77.73 563.84,93.88C563.84,110.03 550.55,123.32 534.4,123.32ZM416.11,101.7L440.23,67.38L440.17,101.66L416.11,101.7Z" style="fill:white;"/>
    </g>
    <path id="drpg" d="M215.03,40.53C185.771,40.541 161.7,64.621 161.7,93.88L161.7,187.76L185.62,171.61L185.62,138.38C194.348,144.152 204.584,147.23 215.047,147.23C244.314,147.23 268.397,123.147 268.397,93.88C268.397,64.618 244.322,40.537 215.06,40.53L215.03,40.53ZM157.953,40.531C159.216,40.54 160.462,40.618 161.7,40.74L161.7,64.9C160.387,64.605 159.046,64.45 157.7,64.44C147.606,64.44 139.3,72.746 139.3,82.84L139.3,147.23L115.39,147.23L115.39,82.84C115.39,59.629 134.489,40.53 157.7,40.53L157.953,40.531ZM82.79,16.15L82.79,49.38C74.062,43.606 63.825,40.526 53.36,40.526C24.099,40.526 0.02,64.605 0.02,93.866C0.02,123.128 24.099,147.206 53.36,147.206C82.616,147.206 106.692,123.136 106.7,93.88L106.7,0.01L82.79,16.15ZM53.36,123.32L53.35,123.32C37.2,123.32 23.91,110.03 23.91,93.88C23.91,77.73 37.2,64.44 53.35,64.44C69.5,64.44 82.79,77.73 82.79,93.88C82.79,109.996 69.556,123.265 53.36,123.32ZM215.06,123.32L215.05,123.32C198.9,123.32 185.61,110.03 185.61,93.88C185.61,77.73 198.9,64.44 215.05,64.44C231.2,64.44 244.49,77.73 244.49,93.88C244.49,110.027 231.207,123.315 215.06,123.32ZM311.7,32.47L311.7,46.56C308.551,49.024 304.666,50.364 300.668,50.364C290.848,50.364 282.768,42.284 282.768,32.464C282.768,22.644 290.848,14.564 300.668,14.564C304.322,14.564 307.89,15.683 310.89,17.77L323.15,9.07C317.106,3.261 309.04,0.014 300.657,0.014C282.85,0.014 268.197,14.667 268.197,32.474C268.197,50.281 282.85,64.934 300.657,64.934C310.65,64.934 320.103,60.319 326.25,52.44L326.25,32.44L311.7,32.47Z" style="fill:white;"/>
</svg>
